<svg width="371" height="203" viewBox="0 0 371 203" fill="none" xmlns="http://www.w3.org/2000/svg">
    <g clip-path="url(#clip0_16_2)">
    <path d="M260.22 90.25C259.93 90.25 259.63 90.21 259.33 90.12C257.74 89.63 256.85 87.94 257.34 86.36L270.44 43.89C270.93 42.3 272.61 41.41 274.2 41.9C275.79 42.39 276.68 44.08 276.19 45.66L263.09 88.13C262.69 89.42 261.5 90.25 260.22 90.25Z" fill="url(#paint0_linear_16_2)"/>
    <path d="M242.52 84.67C241.63 84.67 240.74 84.27 240.15 83.51L226.89 66.51C226.03 65.4 226.04 63.84 226.93 62.76L240.14 46.59C241.19 45.3 243.09 45.11 244.37 46.16C245.66 47.21 245.85 49.11 244.8 50.39L233.11 64.7L244.89 79.8C245.91 81.11 245.68 83 244.37 84.03C243.82 84.46 243.17 84.67 242.52 84.67Z" fill="url(#paint1_linear_16_2)"/>
    <path d="M289.77 84.6C289.13 84.6 288.48 84.4 287.93 83.97C286.62 82.95 286.38 81.06 287.4 79.75L299.13 64.61L287.4 50.33C286.34 49.05 286.53 47.15 287.82 46.09C289.1 45.04 291 45.22 292.05 46.51L305.31 62.64C306.2 63.73 306.22 65.28 305.36 66.39L292.15 83.43C291.56 84.2 290.67 84.6 289.77 84.6Z" fill="url(#paint2_linear_16_2)"/>
    <path d="M369.9 61.05C366.15 58.32 363.16 56.53 360.89 55.35C360.91 55.52 360.91 55.71 360.92 55.88C360.49 53.02 359.88 50.22 359.16 47.58C361.62 48.14 364.01 48.91 365.18 49.89C365.45 50.12 365.78 50.23 366.11 50.23C366.52 50.23 366.93 50.05 367.21 49.71C367.72 49.1 367.64 48.19 367.03 47.68C365.12 46.08 361.39 45.05 358.21 44.42C357.15 41.16 355.93 38.19 354.67 35.72C357.07 23.78 359.97 4.49999 356.52 2.45999C349.26 -2.13001 329 11.37 329 11.37C329 11.37 318.37 0.979987 270.37 0.889987H261.48C213.48 1.14999 202.88 11.57 202.88 11.57C202.88 11.57 182.57 -1.87001 175.33 2.73999C171.88 4.78999 174.84 24.06 177.28 35.99C175.98 38.53 174.74 41.59 173.67 44.96C170.62 45.58 167.19 46.51 165.43 47.85C164.8 48.33 164.67 49.24 165.15 49.87C165.43 50.24 165.87 50.44 166.3 50.44C166.6 50.44 166.91 50.34 167.17 50.15C168.24 49.34 170.43 48.65 172.74 48.12C172.05 50.7 171.48 53.42 171.07 56.21C168.79 57.34 166.31 58.9 164.26 60.99C163.7 61.56 163.71 62.47 164.28 63.03C164.56 63.31 164.93 63.44 165.29 63.44C165.65 63.44 166.04 63.29 166.32 63.01C167.62 61.69 169.13 60.62 170.65 59.74C170.33 63.2 170.28 66.71 170.6 70.15C169.39 71.68 168.21 73.42 167.26 75.39C166.92 76.11 167.22 76.97 167.94 77.31C168.14 77.41 168.35 77.45 168.56 77.45C169.1 77.45 169.61 77.15 169.86 76.63C170.25 75.81 170.7 75.05 171.17 74.31C172.31 80.4 174.76 86.1 179.06 90.64V94.65C178.42 99.59 177.85 113.67 177.85 113.67C177.81 114.66 177.78 115.6 177.75 116.56C171.5 119.71 161.46 127.67 159.51 129.76C153.18 136.56 148.14 143.38 141.3 149.72C124.9 164.94 102.85 175.75 80.1 170.47C50.99 163.72 31.2 137.01 26.29 108.85C24.2 96.9 25.02 84.57 29.27 73.14C35.27 57.02 46.75 45.66 60.47 35.67C84.78 17.98 111.5 21.32 138.88 28.62C147.34 30.87 153.14 20.5 148.57 13.92C143.67 6.85999 134.39 4.89999 126.44 2.90999C89.2 -6.38001 52.54 7.14998 26.55 33.92C5.89001 55.22 -3.52999 83.45 1.20001 112.44C2.42001 119.91 4.15001 127.39 6.87001 134.48C14.64 154.74 29.75 174.57 48.39 186.08C69.76 199.28 91.97 199.46 116.07 195.54C116.07 195.54 145.98 187.44 165.11 163.41C173.71 154.82 174.12 153.3 177.83 150.61C179.32 178.83 184.59 191.18 190.14 201.16C199.47 203.19 205.74 202.42 208.27 200.11C202.76 156.37 207.42 152.01 209.74 147.41C212.04 143.88 223.53 142.31 235.59 141.65V141.89L300.9 141.79C311.5 142.52 320.92 144.08 322.99 147.24C325.33 151.84 330 156.18 324.62 199.94C327.16 202.24 333.43 203 342.75 200.94C350.24 187.37 357.2 169.45 354.79 113.43C354.79 113.43 353.34 90.17 352.54 90.95L352.46 90.99C356.88 86.58 359.45 80.99 360.7 74.97C360.98 75.28 361.37 75.45 361.77 75.45C361.99 75.45 362.21 75.4 362.41 75.3C363.12 74.94 363.41 74.07 363.05 73.36C362.58 72.43 362.01 71.49 361.38 70.57C361.78 66.7 361.71 62.74 361.31 58.87C363.18 59.94 365.47 61.39 368.21 63.39C368.47 63.57 368.76 63.67 369.06 63.67C369.51 63.67 369.95 63.46 370.23 63.07C370.7 62.43 370.56 61.52 369.91 61.05M316.1 25.36C318.18 25.36 319.87 27.04 319.87 29.12C319.87 31.2 318.19 32.89 316.11 32.89C314.03 32.89 312.34 31.21 312.34 29.13C312.34 27.05 314.02 25.36 316.1 25.36ZM215.79 25.51C217.87 25.51 219.56 27.19 219.56 29.27C219.56 31.35 217.88 33.04 215.8 33.04C213.72 33.04 212.03 31.36 212.03 29.28C212.03 27.2 213.71 25.51 215.79 25.51ZM330.73 75.83C324.77 85.4 311.68 90.6 300.56 90.61L269.4 90.66L222.38 90.73C190.94 85.23 195.39 62.87 195.39 62.87C200.3 36.4 235.18 37.63 235.18 37.63L264.87 37.58L300.23 37.52C305.84 37.71 311.68 39.68 316.54 42.29C324.31 46.46 331.52 54.23 333.17 62.74C334 67.05 333.41 71.53 330.73 75.82" fill="url(#paint3_linear_16_2)"/>
    </g>
    <defs>
    <linearGradient id="paint0_linear_16_2" x1="267.77" y1="-17.02" x2="264.77" y2="230.47" gradientUnits="userSpaceOnUse">
    <stop stop-color="#CA4480"/>
    <stop offset="1" stop-color="#BD5EC7"/>
    </linearGradient>
    <linearGradient id="paint1_linear_16_2" x1="236.99" y1="-17.39" x2="233.99" y2="230.1" gradientUnits="userSpaceOnUse">
    <stop stop-color="#CA4480"/>
    <stop offset="1" stop-color="#BD5EC7"/>
    </linearGradient>
    <linearGradient id="paint2_linear_16_2" x1="297.23" y1="-16.66" x2="294.24" y2="230.83" gradientUnits="userSpaceOnUse">
    <stop stop-color="#CA4480"/>
    <stop offset="1" stop-color="#BD5EC7"/>
    </linearGradient>
    <linearGradient id="paint3_linear_16_2" x1="186.43" y1="-18.01" x2="183.43" y2="229.48" gradientUnits="userSpaceOnUse">
    <stop stop-color="#CA4480"/>
    <stop offset="1" stop-color="#BD5EC7"/>
    </linearGradient>
    <clipPath id="clip0_16_2">
    <rect width="370.5" height="202.34" fill="white"/>
    </clipPath>
    </defs>
</svg>