<svg width="558" height="131" viewBox="0 0 558 131" fill="none" xmlns="http://www.w3.org/2000/svg">
    <path d="M270.88 95.81C269.64 95.95 268.4 95.61 267.23 95.1C266.01 94.57 265.81 93.94 266.58 92.86C267.37 91.76 268.21 90.68 269.17 89.73C278.68 80.37 288.17 70.98 297.8 61.74C301.08 58.59 304.35 55.41 307.61 52.24C316.26 43.82 324.79 35.29 333.54 26.98C339.1 21.69 344.48 16.22 350.03 10.93C351.87 9.16998 353.67 7.32 356.08 6.29C356.81 5.98 357.55 5.64998 358.31 5.42998C361.56 4.46998 363.19 5.03999 365.01 7.84999C370.52 16.36 376 24.89 381.48 33.42C382.69 35.3 382.8 35.34 384.87 34.2C397.59 27.17 410.32 20.16 423.03 13.11C428.76 9.92997 434.43 6.65998 440.14 3.45998C442.8 1.97998 445.47 0.509975 448.7 0.829975C449.42 0.899975 450.13 0.959986 450.78 1.30999C452.2 2.07999 452.57 3.32 451.7 4.67C451.27 5.34 450.77 5.97999 450.2 6.52999C442.26 14.3 434.36 22.1 426.33 29.78C423.85 32.15 421.36 34.52 418.9 36.92C410.31 45.28 401.83 53.75 393.13 62C387.51 67.34 382.11 72.91 376.45 78.2C373.24 81.2 370.13 84.31 366.95 87.34C365.02 89.18 362.82 90.58 360.19 91.25C357.34 91.98 355.81 91.52 354.24 89.08C348.77 80.64 343.35 72.17 337.91 63.7C337.74 63.43 337.61 63.14 337.42 62.88C336.08 61 336.4 61.09 334.46 62.16C324.52 67.63 314.59 73.1 304.67 78.59C295.31 83.77 285.97 89 276.61 94.18C274.87 95.14 273.04 95.95 270.88 95.81Z" fill="#FAE07F"/>
    <path d="M81.01 19.41C86 19.49 91.31 21.13 95.72 25.18C97.25 26.59 97.24 26.61 95.74 28.12C94.28 29.6 92.74 31.01 91.35 32.55C90.44 33.55 89.73 33.52 88.75 32.68C87.66 31.74 86.4 31.03 85.08 30.44C81.31 28.75 77.5 28.7 73.63 30.06C73.26 30.19 72.88 30.35 72.54 30.55C70.62 31.67 69.39 33.28 69.34 35.56C69.28 37.88 70.51 39.53 72.46 40.58C74.14 41.49 75.94 42.19 77.68 43C80.14 44.15 82.6 45.31 85.06 46.47C85.57 46.71 86.06 46.97 86.55 47.25C91.88 50.25 94.08 54.61 93.22 60.64C92.58 65.14 90.65 69 87.29 72.12C77.64 81.07 61.41 81.44 51.36 72.92C48.86 70.8 48.86 70.8 51.23 68.49C52.83 66.93 54.48 65.41 56.03 63.8C56.9 62.9 57.48 62.91 58.36 63.81C60.81 66.33 63.75 68.02 67.25 68.71C69.98 69.25 72.67 69.06 75.34 68.42C76.68 68.1 77.82 67.34 78.84 66.4C81.5 63.94 82.68 59.26 77.71 56.71C74.01 54.82 70.19 53.16 66.44 51.38C65.43 50.9 64.41 50.42 63.47 49.82C58.79 46.82 56.52 41.6 57.61 36.15C58.95 29.47 62.99 24.88 69 21.91C72.49 20.17 76.23 19.42 81.01 19.41Z" fill="#258CF4"/>
    <path d="M481.96 20.33C488.59 20.33 495.23 20.32 501.86 20.34C503.81 20.35 503.91 20.48 503.59 22.41C503.25 24.46 502.83 26.49 502.53 28.54C502.36 29.7 501.84 30.14 500.64 30.12C496.49 30.06 492.33 30.09 488.17 30.1C485.86 30.11 485.88 30.12 485.48 32.41C482.91 46.95 480.34 61.48 477.77 76.02C477.46 77.78 477.44 77.8 475.63 77.82C473.07 77.84 470.52 77.84 467.96 77.82C465.94 77.8 465.9 77.77 466.24 75.83C467.93 66.16 469.65 56.5 471.36 46.84C472.21 42.05 473.08 37.26 473.93 32.47C474.01 32 474.05 31.52 474.09 31.04C474.14 30.45 473.82 30.15 473.26 30.14C472.46 30.11 471.66 30.11 470.86 30.11C467.18 30.11 463.51 30.13 459.83 30.1C458.26 30.09 458.21 29.99 458.47 28.43C458.82 26.38 459.2 24.34 459.57 22.3C459.93 20.36 459.93 20.34 462.06 20.34C468.69 20.32 475.33 20.32 481.96 20.33Z" fill="#32EF9D"/>
    <path d="M149.48 72.8C146.61 69.26 144.75 65.21 144.33 60.72C143.29 49.41 146.05 39.14 153.63 30.48C159.26 24.05 166.29 20.04 174.98 19.46C181.16 19.05 186.67 20.74 191.19 25.15C192.72 26.65 192.71 26.67 191.18 28.12C189.5 29.72 187.79 31.28 186.15 32.91C185.42 33.64 184.91 33.6 184.17 32.89C178.02 26.96 169.83 28.49 164.2 33.87C159.88 38 157.79 43.31 156.66 49.06C155.75 53.71 156.34 58.27 157.48 62.8C156.71 63.8 155.96 64.82 155.15 65.79C153.21 68.1 151.58 70.64 149.48 72.8Z" fill="#258CF4"/>
    <path d="M242.24 77.82C240.8 77.82 239.36 77.86 237.93 77.81C236.57 77.76 236.42 77.58 236.66 76.21C237.56 71.02 238.48 65.84 239.4 60.65C241.59 48.32 243.78 35.98 246 23.66C246.71 19.73 246.16 20.39 250 20.33C252.08 20.3 254.16 20.29 256.23 20.34C258.02 20.38 258.14 20.53 257.82 22.35C256.54 29.66 255.23 36.96 253.93 44.27C252.07 54.72 250.2 65.16 248.34 75.61C247.95 77.8 247.97 77.81 245.83 77.83C244.64 77.83 243.44 77.82 242.24 77.82Z" fill="#2ECFBA"/>
    <path d="M544.6 48.43C542.73 47.73 540.95 47.04 539.16 46.39C532.93 44.11 526.69 41.85 520.47 39.55C518.41 38.79 518.42 38.76 518.78 36.61C519.07 34.88 519.37 33.15 519.69 31.42C520.04 29.53 520.16 29.45 522.03 30.22C529.05 33.1 536.07 36.01 543.09 38.91C547.23 40.62 551.37 42.33 555.49 44.05C557.14 44.74 557.16 44.79 556.89 46.54C556.68 47.88 556.28 49.2 556.19 50.55C556.07 52.22 555.3 53.03 553.71 53.58C547.51 55.71 541.37 57.99 535.2 60.22C528.81 62.53 522.42 64.84 516.03 67.14C515.5 67.33 514.97 67.51 514.45 67.7C513.77 67.95 513.25 67.78 513.38 67C513.82 64.4 514.31 61.81 514.85 59.23C515.05 58.27 516.06 58.28 516.78 58.04C523.32 55.91 529.86 53.81 536.4 51.7C538.61 50.99 540.81 50.28 543.01 49.53C543.52 49.35 544.15 49.38 544.6 48.43Z" fill="#34EF9E"/>
    <path d="M11.54 48.66C12.31 49.55 13.21 49.6499 14.02 49.9299C19.82 51.9799 25.63 53.9999 31.43 56.0499C33.09 56.6399 33.11 56.67 32.83 58.44C32.51 60.49 32.16 62.5399 31.78 64.5799C31.5 66.0999 31.39 66.17 29.9 65.53C24.26 63.07 18.63 60.58 13 58.1C9.41999 56.52 5.84999 54.91 2.23999 53.4C1.05999 52.91 0.669986 52.31 1.01999 51.04C1.38999 49.66 1.59999 48.2199 1.75999 46.7999C1.93999 45.2199 2.64999 44.3299 4.22999 43.7399C13.59 40.2499 22.9 36.64 32.23 33.07C33.57 32.56 34.91 32.01 36.26 31.54C37.37 31.15 37.67 31.3499 37.5 32.3999C37.11 34.7599 36.59 37.11 36.23 39.48C36.03 40.76 35.03 40.84 34.16 41.13C27.62 43.25 21.07 45.33 14.54 47.45C13.55 47.75 12.5 47.9 11.54 48.66Z" fill="#278CF4"/>
    <path d="M149.48 72.8C151.58 70.64 153.21 68.1 155.13 65.8C155.94 64.83 156.69 63.81 157.46 62.81C157.65 62.96 157.89 63.07 158.02 63.26C161.52 68.57 166.52 70.27 172.73 68.25C175.35 67.4 177.73 66.1 179.8 64.3C180.7 63.52 181.2 63.56 181.82 64.59C182.86 66.29 184.01 67.93 185.13 69.58C185.59 70.25 185.75 70.84 185.01 71.45C174.37 80.28 161.8 82.56 149.6 73.01C149.54 72.96 149.52 72.87 149.48 72.8Z" fill="#29AADA"/>
    <path d="M58.77 120.35C58.57 117.97 58.99 115.83 60.08 113.78C61.79 110.57 67.17 108.68 70.8 112.05C71.09 112.32 71.39 112.61 71.59 112.95C71.9 113.47 72.46 114.06 71.76 114.64C71.03 115.23 70.29 115.2 69.72 114.36C69.67 114.29 69.63 114.23 69.58 114.17C66.81 110.56 62.98 112.71 61.84 115.59C60.45 119.11 60.48 122.56 62.52 125.89C64.1 128.48 66.27 129.01 68.75 127.35C68.82 127.31 68.87 127.24 68.94 127.2C69.79 126.74 70.8 125.57 71.58 126.65C72.32 127.68 71.03 128.5 70.29 129.16C68.17 131.05 64.12 130.81 61.67 128.76C59.75 127.16 59.07 125 58.8 122.65C58.69 121.86 58.77 121.05 58.77 120.35Z" fill="#2187F0"/>
    <path d="M383.3 122.65C383.3 124.57 383.33 126.49 383.29 128.4C383.25 129.98 382.69 130.39 381.43 129.58C380.6 129.04 380.19 129.11 379.39 129.62C376.8 131.29 373.83 130.49 372.54 127.7C370.83 124 371.06 120.09 371.74 116.19C371.87 115.47 372.46 115.44 373.04 115.44C373.84 115.44 374.18 115.86 374.18 116.64C374.18 118.88 374.18 121.11 374.2 123.35C374.21 124.22 374.21 125.09 374.36 125.97C374.79 128.47 377.6 128.98 379.22 127.77C380.72 126.65 381.12 125.05 381.2 123.34C381.29 121.51 381.24 119.67 381.26 117.83C381.26 117.35 381.25 116.87 381.29 116.39C381.35 115.72 381.78 115.41 382.43 115.44C383.02 115.47 383.25 115.88 383.26 116.41C383.28 118.17 383.29 119.93 383.3 121.68C383.3 122 383.3 122.32 383.3 122.64C383.3 122.65 383.3 122.65 383.3 122.65Z" fill="#DC9DEC"/>
    <path d="M287.26 122.73C287.26 124.65 287.3 126.57 287.25 128.48C287.21 129.87 286.6 130.33 285.48 129.61C284.54 129 284.04 129.21 283.19 129.72C280.54 131.28 277.4 130.16 276.24 127.34C275.73 126.08 275.35 124.75 275.3 123.4C275.21 121.33 275.23 119.24 275.31 117.17C275.36 115.8 275.86 115.42 277.05 115.47C278.27 115.52 278.16 116.38 278.16 117.18C278.17 119.82 278.14 122.46 278.17 125.09C278.19 126.44 278.59 127.52 280.05 128.09C281.52 128.66 282.51 128.08 283.47 127.14C284.43 126.21 284.95 125.11 284.91 123.72C284.85 121.8 284.89 119.88 284.9 117.97C284.9 117.49 284.87 117 284.96 116.54C285.12 115.79 285.57 115.15 286.41 115.24C287.25 115.33 287.21 116.1 287.23 116.74C287.24 117.14 287.24 117.54 287.24 117.94C287.24 119.54 287.24 121.14 287.24 122.74C287.25 122.73 287.25 122.73 287.26 122.73Z" fill="#2187F0"/>
    <path d="M422.51 121.52C422.51 122.95 422.45 124.39 422.53 125.82C422.64 127.79 424.33 128.86 426.23 128.25C427.99 127.68 429.15 126.17 429.23 124.08C429.31 122.09 429.26 120.1 429.27 118.1C429.27 117.54 429.27 116.98 429.31 116.43C429.36 115.76 429.75 115.43 430.42 115.45C431.01 115.47 431.24 115.85 431.29 116.38C431.31 116.54 431.31 116.7 431.31 116.86C431.34 120.52 431.34 124.18 431.57 127.84C431.71 130.07 431.15 130.36 429.1 129.31C428.44 128.98 428.1 129.22 427.61 129.49C424 131.45 421.28 130.34 420.07 126.4C419.09 123.22 419.26 119.95 419.4 116.69C419.44 115.63 420.2 115.47 421.09 115.48C421.97 115.49 422.46 115.88 422.47 116.75C422.5 118.34 422.48 119.94 422.48 121.53C422.48 121.52 422.49 121.52 422.51 121.52Z" fill="#D99BEA"/>
    <path d="M348.23 119.81C348.23 117.25 348.21 114.7 348.24 112.14C348.26 110.33 348.29 110.3 350.16 110.29C352.64 110.27 355.12 110.29 357.6 110.3C357.92 110.3 358.24 110.3 358.56 110.34C359.21 110.41 359.61 110.77 359.55 111.44C359.5 112.04 359.02 112.18 358.51 112.18C357.23 112.2 355.94 112.12 354.67 112.24C349.54 112.76 350.69 112.05 350.57 116.5C350.51 118.65 350.66 118.73 352.9 118.79C354.18 118.82 355.46 118.82 356.74 118.84C357.38 118.85 357.82 119.1 357.8 119.83C357.78 120.6 357.25 120.71 356.65 120.72C355.13 120.74 353.61 120.79 352.09 120.75C350.97 120.72 350.51 121.17 350.54 122.3C350.59 124.38 350.53 126.46 350.56 128.53C350.57 129.57 350.13 129.99 349.11 129.87C348.19 129.76 348.24 129.08 348.24 128.44C348.23 126.12 348.23 123.8 348.23 121.49C348.23 120.93 348.23 120.37 348.23 119.81Z" fill="#D99BEA"/>
    <path d="M158.63 122.73C158.66 121.46 158.48 120.17 158.81 118.92C159.09 117.85 158.59 117.45 157.59 117.4C157.2 117.38 156.79 117.35 156.42 117.22C155.93 117.04 155.65 116.65 155.76 116.1C155.86 115.62 156.27 115.57 156.67 115.49C158.78 115.07 158.78 115.06 159.03 112.92C159.16 111.82 159.73 111.22 160.67 111.38C161.4 111.5 162.14 111.78 161.58 112.81C161.43 113.09 161.28 113.38 161.2 113.69C160.88 114.84 161.2 115.35 162.39 115.46C163.26 115.54 164.15 115.47 165.02 115.49C165.61 115.5 166.19 115.58 166.14 116.38C166.1 117.05 165.65 117.36 165.02 117.38C164.3 117.41 163.58 117.38 162.87 117.41C161.33 117.49 161.08 117.67 161.03 119.25C160.96 121.4 160.92 123.56 161.02 125.71C161.13 128.07 162.49 128.84 164.78 127.99C165.08 127.88 165.36 127.7 165.66 127.62C166.19 127.48 166.84 127.24 167.12 127.92C167.44 128.67 167.21 129.38 166.43 129.72C162.19 131.57 159.32 130.57 158.65 125.83C158.5 124.82 158.63 123.77 158.63 122.73Z" fill="#2187F0"/>
    <path d="M143.76 125.11C143.76 126.15 143.79 127.19 143.75 128.22C143.69 129.84 143.21 130.29 141.69 129.73C140.59 129.33 139.71 129.4 138.75 129.92C137.48 130.6 136.09 130.49 134.76 130.29C132.8 129.99 131.39 128.69 131.21 127.25C130.91 124.86 131.63 123.26 133.6 122.27C134.96 121.58 136.45 121.26 137.99 121.27C138.71 121.28 139.43 121.32 140.15 121.27C141.24 121.19 141.53 120.73 141.22 119.7C140.7 117.95 138.5 116.7 136.65 117.17C135.57 117.44 134.53 117.87 133.47 118.22C133.04 118.36 132.67 118.21 132.44 117.85C132.16 117.4 132.2 116.95 132.59 116.55C135.01 114.08 140.84 114.69 142.62 117.63C143.47 119.04 143.48 120.68 143.68 122.24C143.8 123.18 143.7 124.15 143.7 125.11C143.72 125.11 143.74 125.11 143.76 125.11ZM138.55 123.16C137.68 123.2 136.8 123.12 135.94 123.43C135.18 123.71 134.44 123.95 133.92 124.63C132.79 126.12 133.08 127.31 134.78 128.05C136.79 128.94 139.49 128.11 140.69 126.2C141.16 125.45 141.63 124.62 141.19 123.73C140.73 122.82 139.78 123.25 139.03 123.15C138.88 123.15 138.71 123.16 138.55 123.16Z" fill="#2187F0"/>
    <path d="M398.64 123.26C398.79 121.73 398.93 120.31 399.08 118.88C399.18 117.9 398.87 117.33 397.78 117.41C397.46 117.43 397.14 117.41 396.83 117.35C396.23 117.24 395.76 116.92 395.81 116.24C395.85 115.64 396.36 115.53 396.86 115.49C397.18 115.47 397.5 115.45 397.82 115.47C398.74 115.51 399.13 115.06 399.11 114.17C399.1 113.61 399.06 113.04 399.16 112.5C399.3 111.7 400.26 111.36 401.31 111.65C402.11 111.87 401.97 112.39 401.78 112.96C401.65 113.34 401.53 113.72 401.47 114.11C401.33 115 401.71 115.47 402.64 115.47C403.52 115.47 404.4 115.48 405.28 115.5C405.94 115.51 406.34 115.8 406.29 116.53C406.25 117.11 405.9 117.38 405.35 117.39C404.47 117.41 403.59 117.44 402.71 117.41C401.77 117.39 401.53 117.94 401.38 118.74C400.92 121.28 400.88 123.82 401.42 126.35C401.74 127.84 402.64 128.51 404.15 128.31C404.85 128.22 405.53 127.92 406.2 127.67C406.68 127.49 407.21 126.9 407.54 127.78C407.77 128.4 407.8 129.06 407.08 129.44C406.73 129.63 406.35 129.76 405.99 129.92C404.78 130.46 403.5 130.49 402.22 130.37C400.67 130.23 399.49 129.13 399.18 127.44C398.9 126.03 398.8 124.6 398.64 123.26Z" fill="#DC9DEC"/>
    <path d="M232.49 126.24C232.68 123.74 232.01 121.41 230.8 119.18C229.55 116.86 228.41 114.48 227.25 112.11C226.99 111.58 226.44 110.98 227.15 110.41C227.72 109.95 228.97 110.26 229.48 110.98C229.75 111.37 229.93 111.83 230.14 112.25C231 113.96 231.84 115.69 232.72 117.39C233 117.92 233.1 118.78 233.9 118.7C234.63 118.62 234.71 117.79 234.97 117.24C235.76 115.58 236.5 113.9 237.26 112.23C237.46 111.8 237.66 111.35 237.92 110.95C238.37 110.25 239.1 110 239.79 110.37C240.52 110.76 240.2 111.5 239.93 112.07C239.11 113.8 238.34 115.57 237.38 117.22C235.77 120.01 235.02 122.95 235.31 126.16C235.35 126.56 235.32 126.96 235.33 127.36C235.34 129.73 235.23 129.92 233.85 129.89C232.57 129.86 232.48 129.7 232.48 127.48C232.49 127.09 232.49 126.69 232.49 126.24Z" fill="#2187F0"/>
    <path d="M114.51 123.17C113.31 123.17 112.11 123.13 110.91 123.18C109.7 123.24 109.41 123.68 109.64 124.87C110.15 127.46 113.08 129.05 115.57 128.08C116.24 127.82 116.85 127.43 117.52 127.16C118.11 126.92 118.65 127.11 118.97 127.65C119.3 128.2 118.86 128.56 118.51 128.85C116.4 130.6 114.03 130.74 111.52 129.95C109.2 129.22 107.74 127.76 107.2 125.31C106.79 123.47 106.76 121.69 107.29 119.89C108.55 115.58 113.03 113.73 116.8 115.96C118.96 117.24 120.01 120.09 119.21 122.44C119.02 123.01 118.61 123.14 118.11 123.14C116.91 123.15 115.71 123.14 114.51 123.14C114.51 123.16 114.51 123.17 114.51 123.17ZM113.42 121.24C113.42 121.23 113.42 121.22 113.42 121.22C114.38 121.22 115.33 121.24 116.29 121.21C116.96 121.19 117.31 120.87 117.18 120.14C116.91 118.63 115.24 117.12 113.67 117C112.12 116.88 110.45 117.93 109.89 119.39C109.4 120.65 109.71 121.16 111.04 121.23C111.82 121.27 112.62 121.24 113.42 121.24Z" fill="#2187F0"/>
    <path d="M474.69 123.2C473.34 123.2 471.98 123.18 470.63 123.21C469.96 123.22 469.64 123.55 469.75 124.29C470.21 127.3 472.75 128.96 475.69 128.1C476.37 127.9 477.03 127.61 477.67 127.3C478.28 127.01 478.76 127.09 479.11 127.65C479.51 128.28 479.12 128.67 478.63 129.03C476.54 130.54 474.25 130.87 471.84 130.02C469.07 129.04 467.68 126.92 467.31 124.1C467.03 121.98 467.52 119.99 468.58 118.13C470.2 115.32 472.85 114.34 475.92 115.41C478.74 116.4 480.18 118.94 479.73 122.02C479.62 122.78 479.31 123.18 478.52 123.17C477.24 123.16 475.97 123.17 474.69 123.17C474.69 123.19 474.69 123.19 474.69 123.2ZM473.62 121.25V121.24C474.41 121.24 475.2 121.28 475.99 121.23C477.36 121.15 477.73 120.49 477.18 119.2C476.64 117.94 474.93 116.93 473.51 117.03C472 117.14 470.6 118.26 470.2 119.69C469.9 120.74 470.17 121.17 471.25 121.24C472.04 121.29 472.83 121.25 473.62 121.25Z" fill="#DC9DEC"/>
    <path d="M186.45 123.18C185.25 123.18 184.05 123.2 182.85 123.18C181.74 123.16 181.49 123.77 181.64 124.73C182.04 127.32 184.94 129.04 187.46 128.16C188.13 127.92 188.76 127.56 189.41 127.25C190.1 126.93 190.67 127.08 191.03 127.75C191.39 128.42 190.94 128.77 190.42 129.07C187.9 130.54 184.59 131.09 182.02 129.35C179.62 127.72 178.41 124.45 179.14 121.32C179.32 120.54 179.48 119.75 179.76 119.02C181.31 115.01 185.51 114.42 188.3 115.58C189.44 116.05 190.28 116.92 190.72 118.1C190.92 118.62 191.07 119.16 191.23 119.69C192.15 122.67 191.77 123.17 188.59 123.19C187.89 123.17 187.17 123.17 186.45 123.18ZM185.37 121.24C185.37 121.23 185.37 121.23 185.37 121.22C186.17 121.22 186.97 121.22 187.77 121.22C187.85 121.22 187.93 121.22 188.01 121.21C189.27 121.09 189.53 120.67 189.1 119.48C188.66 118.25 186.93 117.02 185.56 116.98C184.24 116.94 182.43 118.1 181.92 119.32C181.36 120.66 181.69 121.17 183.21 121.23C183.93 121.27 184.65 121.24 185.37 121.24Z" fill="#2187F0"/>
    <path d="M303.85 117.23C304.76 116.54 305.48 115.93 306.32 115.49C307.9 114.69 309.42 115.02 310.92 115.65C311.7 115.98 311.97 116.66 311.62 117.42C311.26 118.21 310.56 118.01 309.99 117.69C307.93 116.56 306.3 117.44 304.85 118.82C303.74 119.88 303.69 121.39 303.62 122.81C303.54 124.48 303.6 126.15 303.58 127.82C303.58 128.3 303.57 128.78 303.48 129.24C303.4 129.7 303.02 129.84 302.58 129.83C302.15 129.83 301.77 129.67 301.69 129.22C301.61 128.76 301.59 128.27 301.59 127.8C301.58 124.38 301.57 120.96 301.6 117.54C301.61 116.81 301.24 115.82 302.31 115.51C303.59 115.15 303.49 116.42 303.85 117.23Z" fill="#2187F0"/>
    <path d="M88.3 116.78C88.62 116.77 88.9 116.2 89.35 115.9C91.07 114.74 93.29 114.75 94.99 115.85C95.77 116.35 95.85 116.95 95.47 117.68C95.05 118.49 94.55 118.17 93.9 117.85C91.21 116.51 88.93 117.53 87.89 120.39C87.58 121.24 87.53 122.1 87.53 122.98C87.53 124.9 87.51 126.82 87.52 128.73C87.52 129.52 87.14 129.9 86.35 129.89C85.56 129.88 85.2 129.47 85.2 128.7C85.2 124.7 85.2 120.71 85.2 116.71C85.2 115.93 85.43 115.22 86.31 115.12C87.11 115.03 87.38 115.66 87.54 116.32C87.6 116.55 87.7 116.76 88.3 116.78Z" fill="#2187F0"/>
    <path d="M264.22 122.75C264.42 125.06 263.5 126.87 262.02 128.59C259.5 131.52 254.11 130.81 252.15 127.43C250.47 124.52 250.24 121.59 251.82 118.58C253.04 116.27 254.91 114.99 257.56 115.02C260.31 115.05 262.2 116.5 263.42 118.85C264.06 120.05 264.37 121.38 264.22 122.75ZM253.21 122.49C253.24 124.51 254.12 126.47 255.3 127.45C256.77 128.68 258.14 128.69 259.62 127.49C262.36 125.27 262.39 120.19 259.69 117.94C258.21 116.71 256.85 116.68 255.38 117.9C253.84 119.17 253.38 120.92 253.21 122.49Z" fill="#2187F0"/>
    <path d="M448.21 117.1C448.91 116.91 449.23 116.29 449.74 115.93C451.43 114.76 453.95 114.79 455.6 115.97C456.32 116.48 456.12 117.01 455.82 117.63C455.51 118.27 455.16 118.3 454.49 118.04C450.68 116.52 448.06 118.26 447.96 122.36C447.91 124.43 447.98 126.51 447.93 128.58C447.9 129.66 447.35 130.08 446.46 129.91C445.58 129.74 445.62 129.07 445.62 128.43C445.62 124.6 445.62 120.77 445.63 116.94C445.63 116.21 445.64 115.41 446.52 115.19C447.54 114.94 447.62 115.84 447.88 116.48C447.99 116.69 448.11 116.89 448.21 117.1Z" fill="#D99BEA"/>
    <path d="M499.28 128.66C499.26 129.57 498.37 130.38 497.35 130.4C496.21 130.43 495.54 129.79 495.53 128.67C495.52 127.57 496.44 126.65 497.49 126.71C498.35 126.76 499.29 127.79 499.28 128.66Z" fill="#D99BEA"/>
</svg>