<svg width="859" height="252" viewBox="0 0 859 252" fill="none" xmlns="http://www.w3.org/2000/svg">
<path d="M182.734 165.244C163.788 126.364 180.758 76.5836 223.578 58.7485C259.594 43.7473 305.735 56.4382 326.191 98.6065C322.426 101.224 318.664 104.062 314.624 106.422C313.976 106.8 311.508 105.374 310.848 104.226C301.064 87.1932 287.325 75.555 267.862 70.7972C249.838 66.3912 233.66 70.5777 218.941 80.7421C204.258 90.8811 194.85 105.141 192.291 122.833C190.118 137.853 193.002 152.358 201.998 165.08C212.711 180.23 226.79 190.562 245.505 192.908C272.768 196.325 293.675 185.444 309.013 163.082C309.264 162.717 309.55 162.376 309.755 162.108C313.53 166.013 317.203 169.812 321.05 173.791C311.924 191.441 287.979 208.169 263.41 209.869C227.358 212.364 199.937 198.182 182.734 165.244Z" fill="#030302"/>
<path d="M775.093 209.933C772.967 209.936 771.322 209.936 769.178 209.936C769.178 162.975 769.178 116.27 769.178 69.0332C748.974 69.0332 729.261 69.0332 709.337 69.0332C709.337 63.5704 709.337 58.6366 709.337 53.3496C754.739 53.3496 800.103 53.3496 845.736 53.3496C845.736 58.3889 845.736 63.4541 845.736 68.9774C825.903 68.9774 806.176 68.9774 786.134 68.9774C786.134 116.019 786.134 162.607 786.134 209.93C782.412 209.93 778.993 209.93 775.093 209.933Z" fill="#020202"/>
<path d="M442.885 35.7472C443.982 27.9841 444.923 20.6399 446.198 13.3539C446.362 12.4177 448.215 11.1964 449.356 11.1171C453.319 10.8414 457.314 11.0106 461.807 11.0106C449.102 88.4391 436.46 165.494 423.784 242.75C418.9 242.75 414.297 242.75 409.037 242.75C409.82 237.149 410.467 231.707 411.357 226.306C413.841 211.232 416.442 196.177 418.964 181.11C421.568 165.558 424.167 150.005 426.706 134.442C429.167 119.358 431.518 104.255 433.977 89.1708C436.514 73.6032 439.121 58.0468 441.706 42.4869C442.056 40.3817 442.456 38.2848 442.885 35.7472Z" fill="#2F76B6"/>
<path d="M557.021 193.995C583.185 193.995 608.851 193.97 634.517 194.007C645.121 194.023 654.462 191.322 659.419 181.028C664.55 170.373 664.631 159.634 658.172 149.242C655.37 144.734 651.097 142.503 646.307 141.001C644.038 140.29 642.739 139.311 642.922 136.576C643.188 132.613 642.99 128.618 642.99 123.72C646.296 124.173 649.463 124.06 652.217 125.073C668.03 130.892 677.212 142.271 680.033 158.91C682.425 173.026 679.265 185.649 670.025 196.557C664.28 203.34 657.098 208.611 648.019 208.871C623.265 209.581 598.492 209.662 573.726 209.929C564.737 210.026 555.746 209.944 546.373 209.944C546.373 204.745 546.373 199.687 546.373 193.995C549.653 193.995 553.089 193.995 557.021 193.995Z" fill="#030403"/>
<path d="M22.1546 193.995C50.8032 193.995 78.9757 193.598 107.131 194.125C128.583 194.526 137.308 176.907 134.246 159.932C132.439 149.914 127.403 143.63 117.713 140.745C116.578 140.408 115.203 138.625 115.115 137.426C114.8 133.143 114.992 128.823 114.992 124.051C126.924 123.4 135.677 129.259 142.432 137.392C156.739 154.619 156.499 179.802 141.982 196.676C136.195 203.402 128.987 208.679 119.893 208.878C89.9704 209.533 60.0356 209.63 30.1054 209.929C26.294 209.968 22.4819 209.935 17.9995 209.935C17.9995 205.096 17.8404 200.491 18.1637 195.92C18.2147 195.199 20.4472 194.633 22.1546 193.995Z" fill="#030403"/>
<path d="M53.0032 135.783C53.4425 139.03 51.7202 139.137 49.6925 139.018C42.8571 138.615 37.2172 135.468 31.9219 131.447C20.6434 122.881 15.3448 110.921 15.2719 97.3774C15.1786 80.0451 21.6388 61.3627 43.8172 54.7253C46.4575 53.9352 49.235 53.1472 51.9516 53.1381C84.4143 53.029 116.877 53.0677 149.672 53.0677C149.672 58.2645 149.672 63.3273 149.672 69.0083C147.983 69.0083 146.219 69.0083 144.455 69.0083C116.472 69.0083 88.4817 69.4093 60.509 68.8799C38.5801 68.4649 30.8068 87.1494 33.7384 102.925C35.5698 112.78 40.2227 119.363 50.0114 122.262C51.296 122.642 52.6378 124.822 52.8711 126.336C53.3225 129.264 53.0031 132.312 53.0032 135.783Z" fill="#020302"/>
<path d="M566.686 115.195C570.356 117.633 573.571 120.247 577.229 121.847C579.81 122.977 581.336 123.776 581.077 126.927C580.765 130.717 581.003 134.552 581.003 138.822C572.516 139.747 565.99 136.025 559.799 131.311C548.687 122.852 543.423 111.045 543.278 97.6711C543.084 79.8909 549.739 61.4668 572.013 54.6307C575.263 53.6334 578.786 53.0983 582.186 53.0849C613.185 52.9629 644.185 53.0032 675.185 53.0022C675.978 53.0022 676.772 53.0728 677.776 53.1204C677.776 58.358 677.776 63.3059 677.776 69.0082C676.141 69.0082 674.394 69.0082 672.648 69.0082C644.148 69.0082 615.648 69.008 587.148 69.0082C570.084 69.0084 557.376 84.7096 561.271 101.407C562.358 106.064 564.67 110.435 566.686 115.195Z" fill="#020302"/>
<path d="M372.626 102.629C380.03 97.2452 387.095 92.0034 394.27 86.9179C395.516 86.0352 397.23 85.8136 398.727 85.2866C399.153 86.7863 399.706 88.2628 399.985 89.7894C401.975 100.703 398.31 108.198 387.92 113.328C380.303 117.089 373.703 122.909 366.002 128.261C374.157 133.724 381.548 139.346 389.566 143.851C397.065 148.066 400.869 153.37 399.471 162.147C398.966 165.313 399.39 168.627 399.39 173.008C378.227 157.744 357.956 143.123 337.24 128.181C349.027 119.661 360.675 111.242 372.626 102.629Z" fill="#BDD7ED"/>
<path d="M470.986 151.99C470.986 151.99 470.992 151.521 471.2 151.151C471.669 150.571 471.863 150.311 471.991 150.001C471.991 150.001 472 150 472.317 149.96C473.419 149.277 474.205 148.634 474.992 147.991C474.992 147.991 475 148 475.213 147.877C475.693 147.551 475.9 147.299 476.049 146.999C485.317 140.955 494.585 134.911 504.755 128.278C493.851 120.92 483.756 114.108 473.221 106.942C472.572 106.326 472.311 106.134 471.999 106.011C471.999 106.011 472 106 471.871 105.792C471.538 105.325 471.289 105.121 470.995 104.972C470.995 104.972 470.99 104.49 470.993 103.78C471.009 96.7125 471.022 90.3552 471.035 83.9978C477.287 88.2937 483.612 92.4883 489.776 96.9063C503.241 106.556 516.623 116.322 530.047 126.028C530.708 126.506 531.458 126.861 532.97 127.74C512.541 142.859 493.065 157.273 472.962 171.841C471.888 171.98 471.442 171.967 470.996 171.953C470.996 171.953 470.994 171.484 470.997 170.78C470.995 164.047 470.991 158.019 470.986 151.99Z" fill="#BDD7ED"/>
<path d="M470.76 84.312C471.022 90.3551 471.009 96.7124 470.99 103.539C470.818 97.5475 470.652 91.0869 470.76 84.312Z" fill="#CCCECE"/>
<path d="M470.725 152.313C470.991 158.019 470.995 164.047 470.995 170.546C470.815 164.889 470.639 158.762 470.725 152.313Z" fill="#C9CDCD"/>
<path d="M474.675 148.026C474.205 148.634 473.419 149.277 472.317 149.955C472.787 149.348 473.573 148.705 474.675 148.026Z" fill="#C9CDCD"/>
<path d="M471.142 172.169C471.442 171.966 471.888 171.98 472.668 172.002C472.431 172.134 471.859 172.26 471.142 172.169Z" fill="#C9CDCD"/>
<path d="M471.775 150.123C471.863 150.311 471.669 150.571 471.202 150.917C471.103 150.727 471.29 150.457 471.775 150.123Z" fill="#C9CDCD"/>
<path d="M475.831 147.116C475.9 147.299 475.693 147.551 475.21 147.873C475.132 147.683 475.338 147.431 475.831 147.116Z" fill="#C9CDCD"/>
<path d="M472.127 106.221C472.311 106.134 472.572 106.326 472.915 106.794C472.734 106.88 472.47 106.69 472.127 106.221Z" fill="#CCCECE"/>
<path d="M471.111 105.188C471.289 105.121 471.538 105.325 471.865 105.792C471.68 105.872 471.426 105.672 471.111 105.188Z" fill="#CCCECE"/>
</svg>
