<svg width="384" height="311" viewBox="0 0 384 311" fill="none" xmlns="http://www.w3.org/2000/svg">
<path d="M113.786 0.000637745C103.746 -0.0825119 91.9488 7.97681 88.4184 17.3483C80.1555 39.2829 64.7866 96.5769 64.7388 96.4616H64.7539C44.4012 100.965 28.1035 106.5 16.9403 112.699C5.77703 118.898 0.00281221 125.619 7.86319e-09 132.419C-0.000228058 138.723 4.96078 144.965 14.5998 150.789C24.2388 156.613 38.3669 161.905 56.1777 166.363C73.9884 170.82 95.1329 174.356 118.404 176.768C141.675 179.181 166.616 180.423 191.805 180.423C216.993 180.423 241.935 179.181 265.206 176.768C288.477 174.356 309.621 170.82 327.432 166.363C345.242 161.905 359.371 156.613 369.01 150.789C378.649 144.965 383.61 138.723 383.609 132.419C383.607 125.619 377.833 118.898 366.67 112.699C355.507 106.5 339.21 100.966 318.857 96.4616H318.873C318.825 96.5769 303.456 39.2829 295.193 17.3483C291.663 7.97681 279.864 -0.0825119 269.824 0.000637745C241.828 0.233079 248.015 17.8048 191.806 18.6901C135.597 17.8048 141.782 0.233079 113.786 0.000637745ZM54.7329 199.803C40.72 199.179 37.1191 213.536 37.4869 223.919C37.9132 235.962 45.6044 264.359 70.1606 284.464C100.944 309.667 143.323 312.463 156.493 308.682C173.714 303.739 173.304 287.204 192.473 287.204C211.641 287.204 211.233 303.739 228.454 308.682C241.623 312.463 284.002 309.667 314.786 284.464C339.342 264.359 347.033 235.962 347.459 223.919C347.827 213.536 344.226 199.179 330.213 199.803C329.279 199.845 328.299 199.953 327.27 200.133C310.811 203.019 271.829 210.075 192.473 210.075C113.117 210.075 74.135 203.019 57.6763 200.133C56.6476 199.953 55.6671 199.845 54.7329 199.803ZM120.86 233.657C125.958 233.74 130.871 234.243 135.391 235.022C152.223 237.924 161.679 243.67 162.153 250.575C162.558 256.486 157.225 265.646 147.514 270.915C141.206 274.338 133.428 275.072 127.584 274.522C120.934 273.896 114.054 272.624 105.469 266.78C96.2461 260.501 87.6568 249.489 89.561 243.987C91.4652 238.485 96.5157 236.295 105.217 234.807C110.477 233.908 115.761 233.573 120.86 233.657ZM264.086 233.657C269.185 233.573 274.469 233.908 279.729 234.807C288.431 236.295 293.481 238.485 295.385 243.987C297.289 249.489 288.7 260.501 279.477 266.78C270.893 272.624 264.012 273.896 257.362 274.522C251.519 275.072 243.741 274.338 237.432 270.915C227.721 265.646 222.388 256.486 222.794 250.575C223.267 243.67 232.723 237.924 249.555 235.022C254.076 234.243 258.988 233.74 264.086 233.657Z" fill="url(#paint0_linear_48_26)"/>
<path d="M243.217 57.0699C242.564 57.0888 241.879 57.2612 241.278 57.611C237.644 59.7237 205.313 77.7965 205.313 77.7965C205.313 77.7965 202.557 73.494 199.737 69.1071C199.737 69.1062 199.736 69.1079 199.737 69.1071C197.532 65.6567 195.363 62.2876 194.508 61.0485C193.909 60.1789 193.196 59.8095 192.45 59.7633C190.809 59.6617 189.008 61.1207 187.903 62.236C186.296 63.8582 139.82 108.559 138.553 109.869C136.245 112.256 139.99 113.74 142.395 112.341C146.029 110.229 178.36 92.1539 178.36 92.1539C178.36 92.1539 181.116 96.4584 183.936 100.845C183.936 100.846 183.937 100.844 183.936 100.845C186.141 104.296 188.31 107.665 189.165 108.904C189.764 109.774 190.477 110.143 191.223 110.189C192.864 110.291 194.665 108.832 195.77 107.716C197.377 106.094 243.853 61.3938 245.12 60.0836C246.851 58.2929 245.177 57.0091 243.217 57.0699Z" fill="url(#paint1_linear_48_26)"/>
<defs>
<linearGradient id="paint0_linear_48_26" x1="35.3793" y1="51.9918" x2="337.241" y2="257.076" gradientUnits="userSpaceOnUse">
<stop stop-color="#373A43"/>
<stop offset="1" stop-color="#3F4D77"/>
</linearGradient>
<linearGradient id="paint1_linear_48_26" x1="137.83" y1="84.9753" x2="245.843" y2="84.9753" gradientUnits="userSpaceOnUse">
<stop stop-color="#F6D066"/>
<stop offset="1" stop-color="#FAE483"/>
</linearGradient>
</defs>
</svg>
